<?xml version="1.0" encoding="UTF-8" standalone="no"?>
<svg id="svg2" xmlns:rdf="http://www.w3.org/1999/02/22-rdf-syntax-ns#" xmlns="http://www.w3.org/2000/svg" height="48.61mm" width="78.349mm" version="1.1" xmlns:cc="http://creativecommons.org/ns#" xmlns:dc="http://purl.org/dc/elements/1.1/" viewBox="0 0 277.6156 172.2401">
  <g id="layer1" transform="translate(-110.75 -531.01)">
    <path id="path3346" d="m116.24 700.58s-7.8839-33.489 0.95647-71.841c4.3966-19.074 13.196-39.778 30.202-57.249 16.833-17.292 42.86-32.373 80.634-36.992 6.9591-0.80412 14.26-1.2364 21.88-1.2401 43.17-0.0213 74.576 13.475 95.029 30.567 20.714 17.31 31.415 38.955 36.612 59.209 5.1971 20.255 5.0834 39.784 3.8834 53.842-1.2101 14.177-3.5161 23.269-3.5161 23.269-49.511-12.154-99.567-18.633-148.23-16.605-37.45 1.197-76.658 8.1593-117.45 17.039z" stroke="#000" stroke-width="4.5" fill="none"/>
    <g>
      <path id="path3374" transform="matrix(1.8536 0 0 1.6848 -253.13 -380.65)" d="m275.39 600.7c-1.7443 5.5173-23.729 23.641-29.464 24.073-5.7346 0.4317-27.505-10.108-29.966-15.213-2.4602-5.1041 2.4278-36.215 7.0726-39.54 4.6448-3.3252 31.774-7.9862 36.541-4.4999 4.7678 3.4863 17.56 29.662 15.816 35.179z"/>
      <path id="path4176" transform="translate(-6.7857 -58.367)" stroke-width="13.6" d="m299.55 674.46c-4.9205-0.27501-26.633-13.844-27.621-18.717-0.98867-4.8726 5.4626-29.797 9.409-32.729 3.9463-2.9326 29.081-6.042 33.452-3.5966 4.3708 2.4454 14.511 27.677 13.151 32.408-1.3595 4.731-23.471 22.91-28.391 22.635z"/>
      <path id="path4180" transform="translate(-18.99 -7.3057)" stroke-width="13.6" d="m372.04 677.79c-3.7197 3.7751-36.001 6.6869-40.298 3.3784-4.2967-3.3085-13.169-27.41-11.753-32.854s24.463-24.812 30.018-24.604c5.5547 0.20811 26.018 16.21 28.565 21.001 2.5474 4.7903-2.8127 29.304-6.5324 33.079z"/>
    </g>
  </g>
</svg>
